<svg xmlns="http://www.w3.org/2000/svg" viewBox="0 0 800 400" width="800" height="400">
  <defs>
    <linearGradient id="vine" x1="0%" y1="0%" x2="100%" y2="100%">
      <stop offset="0%" style="stop-color:#4a3728;stop-opacity:0.35"/>
      <stop offset="100%" style="stop-color:#2d1f18;stop-opacity:0.25"/>
    </linearGradient>
    <radialGradient id="grape" cx="40%" cy="40%" r="60%">
      <stop offset="0%" style="stop-color:#9b59b6;stop-opacity:0.55"/>
      <stop offset="70%" style="stop-color:#6c3483;stop-opacity:0.5"/>
      <stop offset="100%" style="stop-color:#4a235a;stop-opacity:0.45"/>
    </radialGradient>
  </defs>
  <!-- Soft wash so text stays readable -->
  <rect width="800" height="400" fill="#f5f0fa" fill-opacity="0.15"/>
  <!-- Stylized grape clusters (decorative, semi-transparent) -->
  <g opacity="0.55">
    <ellipse cx="120" cy="200" rx="8" ry="10" fill="url(#grape)"/>
    <ellipse cx="135" cy="195" rx="8" ry="10" fill="url(#grape)"/>
    <ellipse cx="128" cy="215" rx="8" ry="10" fill="url(#grape)"/>
    <ellipse cx="145" cy="210" rx="8" ry="10" fill="url(#grape)"/>
    <ellipse cx="138" cy="230" rx="8" ry="10" fill="url(#grape)"/>
    <path d="M125 175 Q130 160 140 175" stroke="url(#vine)" stroke-width="4" fill="none"/>
  </g>
  <g opacity="0.5">
    <ellipse cx="620" cy="160" rx="9" ry="11" fill="url(#grape)"/>
    <ellipse cx="640" cy="150" rx="9" ry="11" fill="url(#grape)"/>
    <ellipse cx="630" cy="175" rx="9" ry="11" fill="url(#grape)"/>
    <ellipse cx="655" cy="168" rx="9" ry="11" fill="url(#grape)"/>
    <ellipse cx="645" cy="195" rx="9" ry="11" fill="url(#grape)"/>
    <ellipse cx="670" cy="188" rx="9" ry="11" fill="url(#grape)"/>
    <path d="M635 130 Q645 110 660 130" stroke="url(#vine)" stroke-width="5" fill="none"/>
  </g>
  <g opacity="0.45">
    <ellipse cx="400" cy="280" rx="10" ry="12" fill="url(#grape)"/>
    <ellipse cx="420" cy="275" rx="10" ry="12" fill="url(#grape)"/>
    <ellipse cx="410" cy="300" rx="10" ry="12" fill="url(#grape)"/>
    <ellipse cx="435" cy="295" rx="10" ry="12" fill="url(#grape)"/>
    <ellipse cx="425" cy="320" rx="10" ry="12" fill="url(#grape)"/>
    <path d="M415 245 Q425 220 440 245" stroke="url(#vine)" stroke-width="5" fill="none"/>
  </g>
</svg>
